# xmcd
#
# Track frame offsets: 
#        150
#        13583
#        29889
#        46037
#        61774
#        75201
#        92098
#        104808
#        121118
#        133078
#        146377
#        161982
#        173867
#        187122
#        201524
#        215316
#        227658
#        240586
#        253499
#        267817
#
# Disc length: 3826 seconds
#
# Revision: 1
# Processed by: cddbd v1.5.2PL0 Copyright (c) Steve Scherf et al.
# Submitted via: ExactAudioCopyFreeDBPlugin 1.0
#
DISCID=1f0ef014
DTITLE=Frank Sinatra - Portrait of Sinatra - Disk 1
DYEAR=1977
DGENRE=Jazz
TTITLE0=Let's Face the Music and Dance
TTITLE1=Nancy (With the Laughing Face)
TTITLE2=I've Got You Under My Skin
TTITLE3=Let Me Try Again
TTITLE4=Fly Me to the Moon
TTITLE5=All or Nothing at All
TTITLE6=For Once in My Life
TTITLE7=Bonita
TTITLE8=My Kind of Town
TTITLE9=Call Me Irresponsible
TTITLE10=All the Way
TTITLE11=Strangers in the Night
TTITLE12=Didn't We
TTITLE13=Come Fly With Me
TTITLE14=Second Time Around
TTITLE15=In the Wee Small Hours of the Morning
TTITLE16=Bad, Bad Leroy Brown
TTITLE17=Softly, As I Leave You
TTITLE18=Cycles
TTITLE19=Send in the Clowns
EXTD=YEAR: 1977
EXTT0=
EXTT1=
EXTT2=
EXTT3=
EXTT4=
EXTT5=
EXTT6=
EXTT7=
EXTT8=
EXTT9=
EXTT10=
EXTT11=
EXTT12=
EXTT13=
EXTT14=
EXTT15=
EXTT16=
EXTT17=
EXTT18=
EXTT19=
PLAYORDER=
